<svg width="83" height="20" viewBox="0 0 83 20" fill="none" xmlns="http://www.w3.org/2000/svg">
<path d="M12.5527 0.545898C12.7991 0.545977 13.0362 0.641783 13.2139 0.8125L16.001 3.49023L16.0029 3.49219L19.0605 6.39648C19.2502 6.57663 19.3574 6.82731 19.3574 7.08887V19.002H13.6377V5.96484H7.21973V0.545898H12.5527ZM6.21973 19.002H0.5V13.5361L0.507812 13.3906C0.542775 13.0547 0.697813 12.7404 0.947266 12.5078L1.81934 11.6953L6.21973 7.61035V19.002Z" fill="#012338" stroke="#012338"/>
<path d="M24.7186 7.80208e-05H38.7586V4.87392H29.7586V7.31085H37.2355V11.9355H29.7586V14.4001H38.7586V19.2739H24.7186V7.80208e-05ZM43.6943 19.2739L51.2543 9.637L43.6943 7.80208e-05H60.0605L52.5005 9.637L60.0605 19.2739H43.6943ZM51.8635 8.80623L57.9835 1.02469H45.7712L51.8635 8.80623ZM57.9835 18.2493L51.8635 10.4678L45.7712 18.2493H57.9835ZM63.8608 7.80208e-05H80.31L72.6116 11.3816V19.2739H71.587V11.3816L63.8608 7.80208e-05Z" fill="#012338"/>
</svg>
