<svg width="128" height="128" viewBox="0 0 128 128" fill="none" xmlns="http://www.w3.org/2000/svg">
<path d="M79.0391 18.7725L79.3945 19.1143L93.9355 33.0576L108.872 47.2188C109.737 48.0391 110.228 49.1789 110.228 50.3711V104.883C110.228 107.282 108.282 109.228 105.883 109.228H81.6621C79.263 109.227 77.3184 107.282 77.3184 104.883V50.2578H50.6816V104.883C50.6816 107.282 48.737 109.227 46.3379 109.228H22.1172C19.718 109.228 17.7725 107.282 17.7725 104.883V78.626C17.7725 77.4194 18.2748 76.2671 19.1582 75.4453L24.8682 70.1328L24.8701 70.1309L48.2275 48.4941V23.1172C48.2275 20.718 50.1721 18.7725 52.5713 18.7725H79.0391Z" stroke="url(#paint0_linear_2165_4402)" stroke-width="2.45455"/>
<defs>
<linearGradient id="paint0_linear_2165_4402" x1="101.162" y1="87.9342" x2="48.3558" y2="38.1683" gradientUnits="userSpaceOnUse">
<stop stop-color="#04A369"/>
<stop offset="1" stop-color="#979318"/>
</linearGradient>
</defs>
</svg>
